<?xml version="1.0" standalone="no"?>
<!DOCTYPE svg PUBLIC "-//W3C//DTD SVG 20010904//EN"
 "http://www.w3.org/TR/2001/REC-SVG-20010904/DTD/svg10.dtd">
<svg version="1.0" xmlns="http://www.w3.org/2000/svg"
 width="512.000000pt" height="512.000000pt" viewBox="0 0 512.000000 512.000000"
 preserveAspectRatio="xMidYMid meet">

<g transform="translate(0.000000,512.000000) scale(0.100000,-0.100000)"
fill="#000000" stroke="none">
<path d="M807 5025 c-235 -45 -450 -191 -585 -398 -200 -306 -184 -723 38
-1014 l39 -52 -29 -71 c-70 -169 -134 -408 -162 -605 -17 -119 -17 -531 0
-650 28 -197 92 -436 162 -605 l29 -71 -39 -52 c-226 -296 -238 -715 -30
-1026 125 -187 303 -314 522 -373 116 -31 326 -31 442 1 107 29 206 75 293
138 l73 52 48 -20 c159 -69 394 -134 594 -166 160 -25 556 -25 716 0 200 32
435 97 595 166 l47 20 53 -39 c76 -58 190 -115 292 -146 79 -24 107 -27 235
-28 121 -1 159 3 228 22 320 87 557 324 644 644 31 116 31 326 -1 442 -29 107
-75 206 -138 293 l-52 73 20 48 c69 159 134 394 166 594 25 160 25 556 0 716
-32 200 -97 435 -166 594 l-20 48 52 73 c63 87 109 186 138 293 32 116 32 326
1 442 -87 320 -324 557 -644 644 -69 19 -107 23 -228 22 -128 -1 -156 -4 -235
-28 -102 -31 -216 -88 -292 -146 l-52 -39 -71 29 c-169 70 -408 134 -605 162
-119 17 -531 17 -650 0 -197 -28 -436 -92 -605 -162 l-71 -29 -52 39 c-77 59
-191 115 -292 145 -114 34 -290 42 -408 20z m122 -266 c30 -24 52 -24 85 2 22
18 26 28 26 75 0 54 0 54 31 54 49 0 148 -29 224 -65 220 -105 379 -318 420
-562 l7 -43 -47 0 c-74 0 -105 -22 -105 -77 0 -43 30 -63 97 -63 29 0 53 -4
53 -8 0 -33 -26 -138 -47 -192 -102 -256 -323 -434 -590 -475 l-43 -7 0 54 c0
68 -19 98 -63 98 -55 0 -77 -31 -77 -105 l0 -47 -42 7 c-245 41 -458 200 -563
420 -36 76 -65 175 -65 224 0 31 0 31 54 31 47 0 57 4 75 26 27 35 26 59 -4
89 -20 20 -34 25 -78 25 l-55 0 13 68 c31 158 91 269 210 387 118 119 231 180
385 209 l65 12 5 -59 c4 -46 10 -63 29 -78z m3447 103 c125 -42 206 -92 300
-186 94 -94 143 -174 187 -301 28 -82 31 -101 31 -220 0 -93 -5 -148 -17 -193
-19 -68 -57 -160 -80 -193 -14 -19 -16 -18 -45 33 -73 130 -192 187 -389 188
l-62 0 48 48 c50 50 94 130 110 203 6 24 11 92 11 151 0 135 -20 197 -88 266
-71 73 -129 96 -232 97 -66 0 -95 -5 -132 -22 -66 -30 -133 -96 -165 -162 -26
-52 -28 -65 -28 -181 0 -174 35 -272 130 -359 l45 -41 -63 0 c-201 -1 -334
-66 -400 -196 l-24 -47 -26 44 c-53 91 -80 194 -85 326 -5 147 11 235 67 349
108 222 296 370 531 420 107 22 268 12 376 -24z m-1571 18 c122 -14 287 -45
387 -75 121 -35 258 -86 258 -96 0 -4 -18 -33 -39 -64 -22 -31 -42 -62 -44
-68 -2 -6 -51 5 -131 31 -270 89 -560 125 -828 103 -188 -15 -356 -48 -524
-103 -80 -26 -129 -37 -131 -31 -2 6 -22 37 -44 68 -21 31 -39 60 -39 64 0 10
137 61 258 96 96 28 264 62 372 74 107 12 399 13 505 1z m-54 -311 c57 -5 150
-19 205 -30 96 -18 305 -79 332 -97 10 -7 8 -27 -9 -98 -31 -128 -24 -331 16
-454 93 -291 302 -500 595 -596 79 -26 97 -28 250 -28 130 -1 179 3 229 17 52
15 66 16 73 5 18 -28 79 -235 98 -333 70 -365 41 -755 -81 -1081 -18 -48 -24
-55 -43 -50 -172 47 -381 48 -526 1 -291 -92 -502 -304 -595 -595 -40 -123
-47 -326 -16 -454 17 -71 19 -91 9 -98 -28 -18 -236 -79 -333 -98 -365 -70
-755 -41 -1081 81 -48 18 -55 24 -50 43 47 173 48 381 1 526 -94 293 -304 502
-595 595 -116 37 -307 46 -431 20 -129 -27 -117 -34 -156 80 -136 401 -134
879 5 1285 33 97 23 92 151 65 125 -26 316 -17 431 20 151 49 263 116 371 224
108 108 175 220 224 371 37 115 46 306 20 431 -28 132 -36 118 99 161 262 84
544 114 807 87z m1585 -206 c-10 -105 -34 -171 -80 -219 -114 -118 -268 -24
-292 177 -6 53 -5 55 22 68 17 8 90 17 172 21 78 4 146 10 149 14 3 3 13 6 21
6 12 0 14 -12 8 -67z m200 -540 c77 -41 124 -116 124 -198 0 -25 -9 -38 -47
-67 -44 -34 -48 -35 -53 -18 -15 57 -81 79 -120 40 -15 -15 -20 -33 -20 -79
l0 -59 -67 -18 c-94 -26 -311 -26 -404 -1 l-66 19 -6 59 c-6 72 -26 99 -72 99
-35 0 -61 -23 -67 -58 -3 -24 -4 -23 -50 13 -45 34 -48 39 -48 83 1 93 58 167
152 198 33 10 117 13 373 11 318 -2 331 -3 371 -24z m-4061 -412 c31 -22 62
-42 68 -44 7 -2 -5 -49 -31 -128 -54 -164 -89 -340 -104 -526 -21 -271 16
-566 104 -832 26 -79 38 -126 31 -128 -6 -2 -37 -22 -68 -44 -31 -21 -60 -39
-64 -39 -5 0 -23 39 -41 88 -98 270 -140 511 -140 802 0 291 42 532 140 803
18 48 36 87 41 87 4 0 33 -18 64 -39z m4275 -48 c98 -271 140 -512 140 -803 0
-291 -42 -532 -140 -802 -18 -49 -36 -88 -41 -88 -4 0 -33 18 -64 39 -31 22
-62 42 -68 44 -7 2 2 43 26 113 80 240 111 436 111 694 0 258 -31 454 -111
694 -23 70 -33 111 -26 113 6 2 35 21 65 43 29 21 58 39 65 39 6 1 25 -38 43
-86z m-3632 -1659 c292 -60 526 -294 586 -586 50 -244 -23 -484 -204 -669
-396 -402 -1070 -237 -1243 306 -42 132 -41 315 4 448 121 360 491 577 857
501z m3208 -4 c221 -56 403 -204 498 -403 54 -112 70 -185 70 -322 1 -145 -15
-211 -81 -345 -39 -80 -61 -109 -137 -186 -77 -76 -106 -98 -186 -137 -134
-66 -200 -82 -345 -81 -187 1 -323 48 -468 163 -129 102 -226 260 -262 424
-26 116 -17 285 19 392 84 247 278 428 531 495 99 26 257 26 361 0z m-2440
-1189 c438 -144 910 -143 1350 1 80 26 129 37 131 31 2 -6 22 -37 44 -68 21
-31 39 -60 39 -64 0 -5 -39 -23 -87 -41 -271 -98 -512 -140 -803 -140 -291 0
-532 42 -803 140 -49 18 -87 37 -85 44 5 17 82 135 89 136 3 0 60 -18 125 -39z"/>
<path d="M925 4645 c-24 -23 -25 -28 -25 -177 l-1 -153 -32 -20 c-61 -38 -93
-141 -66 -212 13 -35 55 -80 92 -99 65 -34 185 -7 223 51 16 24 20 25 129 25
125 0 145 9 145 66 0 59 -31 74 -149 74 -90 0 -91 0 -105 29 -9 16 -34 45 -56
63 l-40 35 0 151 0 151 -26 20 c-35 27 -59 26 -89 -4z m71 -463 c22 -15 24
-42 5 -61 -25 -25 -59 -17 -67 15 -10 40 29 69 62 46z"/>
<path d="M2382 3652 c-10 -10 -35 -46 -55 -79 -36 -59 -40 -62 -135 -102 -53
-23 -106 -41 -117 -41 -11 0 -53 7 -92 17 -92 21 -93 20 -223 -113 -109 -112
-109 -113 -85 -204 21 -80 19 -95 -26 -202 l-41 -97 -73 -46 c-40 -25 -76 -52
-79 -61 -8 -20 -8 -308 0 -328 3 -9 39 -36 79 -61 l73 -46 41 -97 c45 -107 47
-122 26 -202 -24 -91 -24 -92 85 -204 130 -133 131 -134 223 -113 39 10 81 17
92 17 11 0 64 -18 117 -41 l97 -41 46 -73 c25 -40 52 -76 61 -79 20 -8 308 -8
328 0 9 3 36 39 61 79 l46 73 97 41 c53 23 106 41 117 41 11 0 53 -7 92 -17
92 -21 93 -20 223 113 69 71 100 110 100 126 0 13 -9 55 -19 94 l-18 71 44
106 45 106 73 46 c40 25 76 52 79 61 8 20 8 308 0 328 -3 9 -39 36 -79 61
l-73 46 -45 106 -44 106 18 71 c10 39 19 81 19 94 0 16 -31 55 -100 126 -130
133 -131 134 -223 113 -39 -10 -81 -17 -92 -17 -11 0 -64 18 -117 41 l-97 41
-46 73 c-25 40 -52 76 -61 79 -9 3 -85 6 -170 6 -135 0 -156 -2 -172 -18z
m307 -175 c17 -29 38 -61 48 -69 10 -9 80 -42 155 -73 l138 -57 75 18 76 18
66 -66 67 -67 -18 -78 -18 -78 57 -135 c31 -74 64 -143 73 -153 9 -10 40 -31
69 -48 l53 -30 0 -99 0 -99 -53 -30 c-29 -17 -60 -38 -69 -48 -9 -10 -42 -79
-73 -153 l-57 -135 18 -78 18 -78 -67 -67 -66 -66 -76 18 -75 18 -138 -57
c-75 -31 -145 -64 -155 -73 -10 -8 -31 -40 -48 -69 l-30 -53 -99 0 -99 0 -30
53 c-17 29 -38 61 -48 69 -10 9 -80 42 -156 73 l-139 56 -74 -17 -75 -18 -66
67 -67 66 18 76 18 75 -57 138 c-31 75 -64 145 -73 155 -8 10 -40 31 -69 48
l-53 30 0 99 0 99 53 30 c29 17 61 38 69 48 9 10 42 80 73 155 l57 138 -18 75
-18 76 67 66 66 67 74 -18 74 -17 138 55 c76 31 146 63 157 73 10 9 32 41 49
70 l30 53 99 0 99 0 30 -53z"/>
<path d="M2402 3211 c-125 -31 -216 -83 -313 -181 -70 -70 -94 -102 -127 -170
-96 -202 -96 -401 1 -600 58 -120 177 -239 297 -297 266 -130 563 -81 771 126
136 136 194 277 194 471 0 197 -58 336 -199 475 -63 63 -100 90 -166 122 -149
72 -306 91 -458 54z m293 -136 c182 -48 332 -199 379 -381 87 -335 -167 -664
-512 -664 -146 0 -275 53 -377 155 -286 286 -159 774 230 886 76 22 203 24
280 4z"/>
<path d="M2477 2910 c-103 -26 -199 -106 -243 -203 -24 -52 -28 -75 -29 -147
0 -76 3 -92 32 -151 39 -79 102 -140 181 -177 48 -22 71 -27 142 -27 71 0 94
5 142 27 79 37 142 98 181 177 28 58 32 75 32 151 0 76 -4 93 -32 151 -60 121
-171 196 -300 204 -37 2 -85 0 -106 -5z m199 -166 c68 -42 107 -117 102 -196
-12 -168 -191 -261 -334 -172 -68 42 -107 117 -102 196 12 168 191 261 334
172z"/>
<path d="M1093 1473 c-42 -8 -53 -39 -53 -145 l0 -98 -123 0 c-160 0 -161 0
-165 -145 l-4 -103 -120 -4 c-166 -4 -158 10 -158 -259 0 -196 1 -210 20 -229
19 -19 33 -20 479 -20 437 0 460 1 482 19 l24 19 0 461 0 460 -23 23 c-21 22
-30 23 -180 24 -86 1 -167 0 -179 -3z m237 -503 l0 -360 -70 0 -70 0 0 360 0
360 70 0 70 0 0 -360z m-282 -117 l-3 -238 -72 -3 -73 -3 0 241 0 240 75 0 75
0 -2 -237z m-288 -133 l0 -111 -72 3 -73 3 -3 108 -3 107 76 0 75 0 0 -110z"/>
<path d="M4106 1579 c-22 -17 -26 -28 -26 -69 l0 -48 -49 -17 c-109 -36 -191
-146 -191 -259 0 -161 70 -231 286 -281 132 -32 162 -47 181 -92 53 -127 -107
-239 -245 -172 -49 24 -82 69 -82 112 0 35 -41 77 -75 77 -62 0 -85 -89 -45
-177 27 -60 100 -128 163 -151 l52 -20 3 -48 c2 -27 10 -57 19 -66 16 -18 69
-24 89 -10 20 13 34 50 34 91 0 30 4 41 15 41 32 0 114 51 153 95 68 78 87
162 57 263 -30 98 -102 152 -255 187 -177 40 -210 62 -210 140 0 84 69 146
164 146 97 0 159 -47 172 -131 12 -75 82 -101 128 -47 39 46 -8 186 -83 248
-20 16 -59 39 -88 51 -53 21 -53 22 -53 65 0 33 -6 50 -25 68 -30 30 -54 31
-89 4z"/>
</g>
</svg>
